<svg width="32" height="32" viewBox="0 0 32 32" fill="none" xmlns="http://www.w3.org/2000/svg">
<path d="M0 0H32V32H0V0Z" fill="#003399"/>
<path d="M6.39937 14.5698L5.92529 16.1501L6.71542 16.3081L6.39937 14.5698Z" fill="#FFCC00"/>
<path d="M6.39946 14.5698L6.87354 16.1501L6.08341 16.3081L6.39946 14.5698Z" fill="#FFCC00"/>
<path d="M7.90236 15.6618L6.25296 15.6993L6.34683 16.4995L7.90236 15.6618Z" fill="#FFCC00"/>
<path d="M7.90233 15.6619L6.54592 16.6011L6.15147 15.8985L7.90233 15.6619Z" fill="#FFCC00"/>
<path d="M7.32838 17.4286L6.78307 15.8715L6.05096 16.208L7.32838 17.4286Z" fill="#FFCC00"/>
<path d="M7.32836 17.4286L6.01598 16.4288L6.56232 15.8366L7.32836 17.4286Z" fill="#FFCC00"/>
<path d="M4.89647 15.6618L6.54587 15.6993L6.452 16.4995L4.89647 15.6618Z" fill="#FFCC00"/>
<path d="M4.8965 15.6619L6.2529 16.6011L6.64736 15.8985L4.8965 15.6619Z" fill="#FFCC00"/>
<path d="M5.47045 17.4286L6.01576 15.8715L6.74787 16.208L5.47045 17.4286Z" fill="#FFCC00"/>
<path d="M5.47047 17.4286L6.78285 16.4288L6.23651 15.8366L5.47047 17.4286Z" fill="#FFCC00"/>
<path d="M25.3994 14.5698L24.9253 16.1501L25.7154 16.3081L25.3994 14.5698Z" fill="#FFCC00"/>
<path d="M25.3995 14.5698L25.8735 16.1501L25.0834 16.3081L25.3995 14.5698Z" fill="#FFCC00"/>
<path d="M26.9024 15.6618L25.253 15.6993L25.3468 16.4995L26.9024 15.6618Z" fill="#FFCC00"/>
<path d="M26.9023 15.6619L25.5459 16.6011L25.1515 15.8985L26.9023 15.6619Z" fill="#FFCC00"/>
<path d="M26.3284 17.4286L25.7831 15.8715L25.051 16.208L26.3284 17.4286Z" fill="#FFCC00"/>
<path d="M26.3284 17.4286L25.016 16.4288L25.5623 15.8366L26.3284 17.4286Z" fill="#FFCC00"/>
<path d="M23.8965 15.6618L25.5459 15.6993L25.452 16.4995L23.8965 15.6618Z" fill="#FFCC00"/>
<path d="M23.8965 15.6619L25.2529 16.6011L25.6474 15.8985L23.8965 15.6619Z" fill="#FFCC00"/>
<path d="M24.4704 17.4286L25.0158 15.8715L25.7479 16.208L24.4704 17.4286Z" fill="#FFCC00"/>
<path d="M24.4705 17.4286L25.7828 16.4288L25.2365 15.8366L24.4705 17.4286Z" fill="#FFCC00"/>
<path d="M16 23.5L15.5259 25.0802L16.316 25.2383L16 23.5Z" fill="#FFCC00"/>
<path d="M16 23.5L16.4741 25.0802L15.684 25.2383L16 23.5Z" fill="#FFCC00"/>
<path d="M17.5029 24.592L15.8535 24.6294L15.9474 25.4297L17.5029 24.592Z" fill="#FFCC00"/>
<path d="M17.5029 24.5921L16.1465 25.5313L15.7521 24.8287L17.5029 24.5921Z" fill="#FFCC00"/>
<path d="M16.929 26.3587L16.3837 24.8016L15.6515 25.1382L16.929 26.3587Z" fill="#FFCC00"/>
<path d="M16.9289 26.3588L15.6166 25.359L16.1629 24.7667L16.9289 26.3588Z" fill="#FFCC00"/>
<path d="M14.4971 24.592L16.1465 24.6294L16.0526 25.4297L14.4971 24.592Z" fill="#FFCC00"/>
<path d="M14.4971 24.5921L15.8535 25.5313L16.2479 24.8287L14.4971 24.5921Z" fill="#FFCC00"/>
<path d="M15.071 26.3587L15.6163 24.8016L16.3485 25.1382L15.071 26.3587Z" fill="#FFCC00"/>
<path d="M15.0711 26.3588L16.3834 25.359L15.8371 24.7667L15.0711 26.3588Z" fill="#FFCC00"/>
<path d="M10.4468 9.28873L11.7592 8.28894L11.2128 7.69667L10.4468 9.28873Z" fill="#FFCC00"/>
<path d="M10.4468 9.28866L10.9921 7.73156L11.7242 8.06814L10.4468 9.28866Z" fill="#FFCC00"/>
<path d="M9.87282 7.52203L11.2292 8.46122L11.6237 7.7586L9.87282 7.52203Z" fill="#FFCC00"/>
<path d="M9.87279 7.52192L11.5222 7.55937L11.4283 8.35965L9.87279 7.52192Z" fill="#FFCC00"/>
<path d="M11.3757 6.43018L10.9016 8.01042L11.6917 8.16845L11.3757 6.43018Z" fill="#FFCC00"/>
<path d="M11.3758 6.43018L11.8499 8.01042L11.0597 8.16845L11.3758 6.43018Z" fill="#FFCC00"/>
<path d="M12.3044 9.28897L10.9921 8.28918L11.5384 7.69691L12.3044 9.28897Z" fill="#FFCC00"/>
<path d="M12.3045 9.28891L11.7591 7.73181L11.027 8.06839L12.3045 9.28891Z" fill="#FFCC00"/>
<path d="M12.8786 7.52203L11.5222 8.46122L11.1278 7.7586L12.8786 7.52203Z" fill="#FFCC00"/>
<path d="M12.8787 7.52192L11.2293 7.55937L11.3231 8.35965L12.8787 7.52192Z" fill="#FFCC00"/>
<path d="M8.78932 12.8043L8.24401 11.2472L7.5119 11.5838L8.78932 12.8043Z" fill="#FFCC00"/>
<path d="M8.7893 12.8044L7.47692 11.8046L8.02325 11.2123L8.7893 12.8044Z" fill="#FFCC00"/>
<path d="M6.9319 12.8044L8.24428 11.8046L7.69794 11.2123L6.9319 12.8044Z" fill="#FFCC00"/>
<path d="M6.93187 12.8043L7.47719 11.2472L8.20929 11.5838L6.93187 12.8043Z" fill="#FFCC00"/>
<path d="M6.35768 11.0374L7.71409 11.9766L8.10854 11.274L6.35768 11.0374Z" fill="#FFCC00"/>
<path d="M6.35765 11.0373L8.00705 11.0747L7.91318 11.875L6.35765 11.0373Z" fill="#FFCC00"/>
<path d="M9.36327 11.0374L8.00686 11.9766L7.61241 11.274L9.36327 11.0374Z" fill="#FFCC00"/>
<path d="M9.36329 11.0373L7.71389 11.0747L7.80776 11.875L9.36329 11.0373Z" fill="#FFCC00"/>
<path d="M7.8604 9.94556L8.33447 11.5258L7.54435 11.6838L7.8604 9.94556Z" fill="#FFCC00"/>
<path d="M7.8603 9.94556L7.38623 11.5258L8.17635 11.6838L7.8603 9.94556Z" fill="#FFCC00"/>
<path d="M9.36525 20.5417L7.71585 20.5791L7.80972 21.3794L9.36525 20.5417Z" fill="#FFCC00"/>
<path d="M9.36522 20.5418L8.00881 21.481L7.61436 20.7784L9.36522 20.5418Z" fill="#FFCC00"/>
<path d="M8.79103 22.3084L8.24571 20.7513L7.51361 21.0879L8.79103 22.3084Z" fill="#FFCC00"/>
<path d="M8.791 22.3085L7.47862 21.3087L8.02496 20.7164L8.791 22.3085Z" fill="#FFCC00"/>
<path d="M6.93336 22.3085L8.24574 21.3087L7.6994 20.7164L6.93336 22.3085Z" fill="#FFCC00"/>
<path d="M6.93334 22.3084L7.47865 20.7513L8.21076 21.0879L6.93334 22.3084Z" fill="#FFCC00"/>
<path d="M7.86211 19.4497L8.33618 21.03L7.54606 21.188L7.86211 19.4497Z" fill="#FFCC00"/>
<path d="M7.86201 19.4497L7.38794 21.03L8.17806 21.188L7.86201 19.4497Z" fill="#FFCC00"/>
<path d="M6.35912 20.5417L8.00852 20.5791L7.91465 21.3794L6.35912 20.5417Z" fill="#FFCC00"/>
<path d="M6.35914 20.5418L7.71555 21.481L8.11 20.7784L6.35914 20.5418Z" fill="#FFCC00"/>
<path d="M12.7949 23.7224L11.1455 23.7598L11.2394 24.5601L12.7949 23.7224Z" fill="#FFCC00"/>
<path d="M12.7949 23.7225L11.4385 24.6617L11.044 23.959L12.7949 23.7225Z" fill="#FFCC00"/>
<path d="M12.2207 25.4891L11.6754 23.932L10.9433 24.2686L12.2207 25.4891Z" fill="#FFCC00"/>
<path d="M12.2207 25.4892L10.9083 24.4894L11.4547 23.8971L12.2207 25.4892Z" fill="#FFCC00"/>
<path d="M10.363 25.4892L11.6754 24.4894L11.1291 23.8971L10.363 25.4892Z" fill="#FFCC00"/>
<path d="M10.363 25.4891L10.9083 23.932L11.6404 24.2686L10.363 25.4891Z" fill="#FFCC00"/>
<path d="M11.2918 22.6304L11.7659 24.2106L10.9757 24.3686L11.2918 22.6304Z" fill="#FFCC00"/>
<path d="M11.2917 22.6304L10.8176 24.2106L11.6078 24.3686L11.2917 22.6304Z" fill="#FFCC00"/>
<path d="M9.78881 23.7224L11.4382 23.7598L11.3443 24.5601L9.78881 23.7224Z" fill="#FFCC00"/>
<path d="M9.78883 23.7225L11.1452 24.6617L11.5397 23.959L9.78883 23.7225Z" fill="#FFCC00"/>
<path d="M16 5.5L16.4741 7.08025L15.684 7.23827L16 5.5Z" fill="#FFCC00"/>
<path d="M16 5.5L15.5259 7.08025L16.316 7.23827L16 5.5Z" fill="#FFCC00"/>
<path d="M14.4971 6.59198L16.1465 6.62944L16.0526 7.42972L14.4971 6.59198Z" fill="#FFCC00"/>
<path d="M14.4971 6.5921L15.8535 7.53129L16.2479 6.82867L14.4971 6.5921Z" fill="#FFCC00"/>
<path d="M15.071 8.35873L15.6163 6.80163L16.3485 7.13821L15.071 8.35873Z" fill="#FFCC00"/>
<path d="M15.0711 8.3588L16.3834 7.359L15.8371 6.76674L15.0711 8.3588Z" fill="#FFCC00"/>
<path d="M17.5029 6.59198L15.8535 6.62944L15.9474 7.42972L17.5029 6.59198Z" fill="#FFCC00"/>
<path d="M17.5029 6.5921L16.1465 7.53129L15.7521 6.82867L17.5029 6.5921Z" fill="#FFCC00"/>
<path d="M16.929 8.35873L16.3837 6.80163L15.6515 7.13821L16.929 8.35873Z" fill="#FFCC00"/>
<path d="M16.9289 8.3588L15.6166 7.359L16.1629 6.76674L16.9289 8.3588Z" fill="#FFCC00"/>
<path d="M21.5532 9.28873L20.2408 8.28894L20.7872 7.69667L21.5532 9.28873Z" fill="#FFCC00"/>
<path d="M21.5532 9.28866L21.0079 7.73156L20.2758 8.06814L21.5532 9.28866Z" fill="#FFCC00"/>
<path d="M22.1272 7.52203L20.7708 8.46122L20.3763 7.7586L22.1272 7.52203Z" fill="#FFCC00"/>
<path d="M22.1272 7.52192L20.4778 7.55937L20.5717 8.35965L22.1272 7.52192Z" fill="#FFCC00"/>
<path d="M20.6243 6.43018L21.0984 8.01042L20.3083 8.16845L20.6243 6.43018Z" fill="#FFCC00"/>
<path d="M20.6242 6.43018L20.1501 8.01042L20.9403 8.16845L20.6242 6.43018Z" fill="#FFCC00"/>
<path d="M19.6953 9.28897L21.0077 8.28918L20.4614 7.69691L19.6953 9.28897Z" fill="#FFCC00"/>
<path d="M19.6953 9.28891L20.2406 7.73181L20.9727 8.06839L19.6953 9.28891Z" fill="#FFCC00"/>
<path d="M19.1214 7.52203L20.4778 8.46122L20.8722 7.7586L19.1214 7.52203Z" fill="#FFCC00"/>
<path d="M19.1213 7.52192L20.7707 7.55937L20.6769 8.35965L19.1213 7.52192Z" fill="#FFCC00"/>
<path d="M23.2107 12.8043L23.756 11.2472L24.4881 11.5838L23.2107 12.8043Z" fill="#FFCC00"/>
<path d="M23.2107 12.8044L24.5231 11.8046L23.9767 11.2123L23.2107 12.8044Z" fill="#FFCC00"/>
<path d="M25.0683 12.8044L23.756 11.8046L24.3023 11.2123L25.0683 12.8044Z" fill="#FFCC00"/>
<path d="M25.0684 12.8043L24.5231 11.2472L23.791 11.5838L25.0684 12.8043Z" fill="#FFCC00"/>
<path d="M25.6423 11.0374L24.2859 11.9766L23.8915 11.274L25.6423 11.0374Z" fill="#FFCC00"/>
<path d="M25.6423 11.0373L23.9929 11.0747L24.0868 11.875L25.6423 11.0373Z" fill="#FFCC00"/>
<path d="M22.6365 11.0374L23.9929 11.9766L24.3873 11.274L22.6365 11.0374Z" fill="#FFCC00"/>
<path d="M22.6365 11.0373L24.2859 11.0747L24.192 11.875L22.6365 11.0373Z" fill="#FFCC00"/>
<path d="M24.1396 9.94556L23.6655 11.5258L24.4557 11.6838L24.1396 9.94556Z" fill="#FFCC00"/>
<path d="M24.1397 9.94556L24.6138 11.5258L23.8236 11.6838L24.1397 9.94556Z" fill="#FFCC00"/>
<path d="M22.6348 20.5417L24.2842 20.5791L24.1903 21.3794L22.6348 20.5417Z" fill="#FFCC00"/>
<path d="M22.6348 20.5418L23.9912 21.481L24.3856 20.7784L22.6348 20.5418Z" fill="#FFCC00"/>
<path d="M23.209 22.3084L23.7543 20.7513L24.4864 21.0879L23.209 22.3084Z" fill="#FFCC00"/>
<path d="M23.209 22.3085L24.5214 21.3087L23.975 20.7164L23.209 22.3085Z" fill="#FFCC00"/>
<path d="M25.0666 22.3085L23.7543 21.3087L24.3006 20.7164L25.0666 22.3085Z" fill="#FFCC00"/>
<path d="M25.0667 22.3084L24.5213 20.7513L23.7892 21.0879L25.0667 22.3084Z" fill="#FFCC00"/>
<path d="M24.1379 19.4497L23.6638 21.03L24.4539 21.188L24.1379 19.4497Z" fill="#FFCC00"/>
<path d="M24.138 19.4497L24.6121 21.03L23.8219 21.188L24.138 19.4497Z" fill="#FFCC00"/>
<path d="M25.6409 20.5417L23.9915 20.5791L24.0854 21.3794L25.6409 20.5417Z" fill="#FFCC00"/>
<path d="M25.6409 20.5418L24.2844 21.481L23.89 20.7784L25.6409 20.5418Z" fill="#FFCC00"/>
<path d="M19.2051 23.7224L20.8545 23.7598L20.7606 24.5601L19.2051 23.7224Z" fill="#FFCC00"/>
<path d="M19.2051 23.7225L20.5615 24.6617L20.956 23.959L19.2051 23.7225Z" fill="#FFCC00"/>
<path d="M19.7793 25.4891L20.3246 23.932L21.0567 24.2686L19.7793 25.4891Z" fill="#FFCC00"/>
<path d="M19.7793 25.4892L21.0917 24.4894L20.5453 23.8971L19.7793 25.4892Z" fill="#FFCC00"/>
<path d="M21.637 25.4892L20.3246 24.4894L20.8709 23.8971L21.637 25.4892Z" fill="#FFCC00"/>
<path d="M21.637 25.4891L21.0917 23.932L20.3596 24.2686L21.637 25.4891Z" fill="#FFCC00"/>
<path d="M20.7082 22.6304L20.2341 24.2106L21.0243 24.3686L20.7082 22.6304Z" fill="#FFCC00"/>
<path d="M20.7083 22.6304L21.1824 24.2106L20.3922 24.3686L20.7083 22.6304Z" fill="#FFCC00"/>
<path d="M22.2112 23.7224L20.5618 23.7598L20.6557 24.5601L22.2112 23.7224Z" fill="#FFCC00"/>
<path d="M22.2112 23.7225L20.8548 24.6617L20.4603 23.959L22.2112 23.7225Z" fill="#FFCC00"/>
</svg>
