<svg width="32" height="32" viewBox="0 0 32 32" fill="none" xmlns="http://www.w3.org/2000/svg">
<g clip-path="url(#clip0_9_1225)">
<path fill-rule="evenodd" clip-rule="evenodd" d="M0 0H60.8006V2.46156H0V0ZM0 4.92312H60.8006V7.38469H0V4.92312ZM0 9.84625H60.8006V12.3078H0V9.84625ZM0 14.7694H60.8006V17.2309H0V14.7694ZM0 19.6925H60.8006V22.1541H0V19.6925ZM0 24.6156H60.8006V27.0772H0V24.6156ZM0 29.5387H60.8006V32.0003H0V29.5387Z" fill="#BD3D44"/>
<path fill-rule="evenodd" clip-rule="evenodd" d="M0 2.46167H60.8006V4.92323H0V2.46167ZM0 7.3848H60.8006V9.84636H0V7.3848ZM0 12.3079H60.8006V14.7695H0V12.3079ZM0 17.231H60.8006V19.6926H0V17.231ZM0 22.1542H60.8006V24.6157H0V22.1542ZM0 27.0773H60.8006V29.5389H0V27.0773Z" fill="white"/>
<path fill-rule="evenodd" clip-rule="evenodd" d="M0 0H24.3202V17.2309H0V0Z" fill="#192F5D"/>
<path fill-rule="evenodd" clip-rule="evenodd" d="M2.01848 0.738525L2.2646 1.42771H2.95385L2.38767 1.84621L2.60923 2.51084L2.01848 2.09234L1.47692 2.51084L1.69848 1.84621L1.10767 1.42771H1.84623L2.01848 0.738525ZM6.08004 0.738525L6.3016 1.42771H7.01542L6.42467 1.84621L6.67079 2.51084L6.08004 2.09234L5.48929 2.51084L5.73542 1.84621L5.14467 1.42771H5.85848L6.08004 0.738525ZM10.1416 0.738525L10.3632 1.42771H11.077L10.4862 1.84621L10.7324 2.51084L10.1416 2.09234L9.55085 2.51084L9.79698 1.84621L9.20623 1.42771H9.9201L10.1416 0.738525ZM14.1786 0.738525L14.4247 1.42771H15.114L14.5478 1.84621L14.7694 2.51084L14.1786 2.09234L13.6124 2.51084L13.834 1.84621L13.2432 1.42771H13.9817L14.1786 0.738525ZM18.2402 0.738525L18.4617 1.42771H19.1755L18.5848 1.84621L18.8309 2.51084L18.2155 2.09234L17.6494 2.51084L17.8709 1.84621L17.2802 1.42771H17.994L18.2402 0.738525ZM22.3017 0.738525L22.5233 1.42771H23.2371L22.6464 1.84621L22.8925 2.51084L22.3017 2.09234L21.711 2.51084L21.9571 1.84621L21.3664 1.42771H22.0802L22.3017 0.738525ZM4.06154 2.46159L4.2831 3.15084H4.99698L4.40617 3.56928L4.65235 4.2339L4.06154 3.81546L3.47079 4.2339L3.71692 3.56928L3.12617 3.15084H3.84004L4.06154 2.46159ZM8.09854 2.46159L8.34467 3.15084H9.03392L8.46773 3.56928L8.68929 4.2339L8.09854 3.81546L7.53235 4.2339L7.75392 3.56928L7.1631 3.15084H7.9016L8.09854 2.46159ZM12.1601 2.46159L12.3817 3.15084H13.0955L12.5047 3.56928L12.7509 4.2339L12.1601 3.81546L11.5693 4.2339L11.8155 3.56928L11.2247 3.15084H11.9385L12.1601 2.46159ZM16.2217 2.46159L16.4432 3.15084H17.157L16.5663 3.56928L16.8125 4.2339L16.2217 3.81546L15.6309 4.2339L15.877 3.56928L15.2863 3.15084H16.0002L16.2217 2.46159ZM20.2587 2.46159L20.5048 3.15084H21.1694L20.6032 3.56928L20.8248 4.2339L20.234 3.81546L19.6679 4.2339L19.8894 3.56928L19.2986 3.15084H20.0371L20.2587 2.46159ZM2.04304 4.18471L2.23998 4.8739H2.97848L2.38767 5.2924L2.60923 5.95703L2.01848 5.53853L1.47692 5.95703L1.69848 5.2924L1.10767 4.8739H1.84623L2.04304 4.18471ZM6.08004 4.18471L6.3016 4.8739H7.01542L6.44929 5.2924L6.67079 5.95703L6.08004 5.53853L5.51385 5.95703L5.73542 5.2924L5.14467 4.8739H5.85848L6.08004 4.18471ZM10.1416 4.18471L10.3632 4.8739H11.077L10.4862 5.2924L10.7324 5.95703L10.1416 5.53853L9.55085 5.95703L9.79698 5.2924L9.20623 4.8739H9.9201L10.1416 4.18471ZM14.1786 4.18471L14.4247 4.8739H15.114L14.5478 5.2924L14.7694 5.95703L14.1786 5.53853L13.6124 5.95703L13.834 5.2924L13.2432 4.8739H13.9817L14.1786 4.18471ZM18.2402 4.18471L18.4617 4.8739H19.1755L18.6094 5.2924L18.8309 5.95703L18.2402 5.53853L17.674 5.95703L17.8955 5.2924L17.3048 4.8739H18.0186L18.2402 4.18471ZM22.3017 4.18471L22.5233 4.8739H23.2371L22.6464 5.2924L22.8925 5.95703L22.3017 5.53853L21.711 5.95703L21.9571 5.2924L21.3664 4.8739H22.0802L22.3017 4.18471ZM4.06154 5.90771L4.2831 6.59696H4.99698L4.40617 7.0154L4.65235 7.68003L4.06154 7.26159L3.47079 7.68003L3.71692 7.0154L3.12617 6.59696H3.84004L4.06154 5.90771ZM8.09854 5.90771L8.34467 6.59696H9.03392L8.46773 7.0154L8.68929 7.68003L8.09854 7.26159L7.53235 7.68003L7.75392 7.0154L7.1631 6.59696H7.9016L8.09854 5.90771ZM12.1601 5.90771L12.3817 6.59696H13.0955L12.5294 7.0154L12.7509 7.68003L12.1601 7.26159L11.5939 7.68003L11.8155 7.0154L11.2247 6.59696H11.9385L12.1601 5.90771ZM16.2217 5.90771L16.4432 6.59696H17.157L16.5663 7.0154L16.8125 7.68009L16.2217 7.26165L15.6309 7.68009L15.877 7.01546L15.2863 6.59703H16.0002L16.2217 5.90771ZM20.2587 5.90771L20.5048 6.59696H21.1694L20.6032 7.0154L20.8248 7.68003L20.234 7.26159L19.6679 7.68003L19.8894 7.0154L19.2986 6.59696H20.0371L20.2587 5.90771ZM2.04304 7.63084L2.23998 8.32002H2.97848L2.38767 8.73852L2.60923 9.40315L2.01848 8.98465L1.47692 9.40315L1.69848 8.73852L1.10767 8.32002H1.84623L2.04304 7.63084ZM6.08004 7.63084L6.3016 8.32002H7.01542L6.44929 8.73852L6.67079 9.40315L6.08004 8.98465L5.51385 9.40315L5.73542 8.73852L5.14467 8.32002H5.85848L6.08004 7.63084ZM10.1416 7.63084L10.3632 8.32002H11.077L10.4862 8.73852L10.7324 9.40315L10.1416 8.98465L9.55085 9.40315L9.79698 8.73852L9.20623 8.32002H9.9201L10.1416 7.63084ZM14.1786 7.63084L14.4247 8.32002H15.114L14.5478 8.73852L14.7694 9.40315L14.1786 8.98465L13.6124 9.40315L13.834 8.73852L13.2432 8.32002H13.9817L14.1786 7.63084ZM18.2402 7.63084L18.4617 8.32002H19.1755L18.6094 8.73852L18.8309 9.40315L18.2402 8.98465L17.674 9.40315L17.8955 8.73852L17.3048 8.32002H18.0186L18.2402 7.63084ZM22.3017 7.63084L22.5233 8.32002H23.2371L22.6464 8.73852L22.8925 9.40315L22.3017 8.98465L21.711 9.40315L21.9571 8.73852L21.3664 8.32002H22.0802L22.3017 7.63084ZM4.06154 9.3539L4.2831 10.0432H4.99698L4.40617 10.4616L4.65235 11.1262L4.06154 10.7078L3.47079 11.1262L3.71692 10.4616L3.12617 10.0432H3.84004L4.06154 9.3539ZM8.09854 9.3539L8.34467 10.0432H9.03392L8.46773 10.4616L8.68929 11.1262L8.09854 10.7078L7.53235 11.1262L7.75392 10.4616L7.1631 10.0432H7.9016L8.09854 9.3539ZM12.1601 9.3539L12.3817 10.0432H13.0955L12.5294 10.4616L12.7509 11.1262L12.1601 10.7078L11.5939 11.1262L11.8155 10.4616L11.2247 10.0432H11.9385L12.1601 9.3539ZM16.2217 9.3539L16.4432 10.0432H17.157L16.5663 10.4616L16.8125 11.1263L16.2217 10.7078L15.6309 11.1263L15.877 10.4617L15.2863 10.0432H16.0002L16.2217 9.3539ZM20.2587 9.3539L20.5048 10.0432H21.1694L20.6032 10.4616L20.8248 11.1262L20.234 10.7078L19.6679 11.1262L19.8894 10.4616L19.2986 10.0432H20.0371L20.2587 9.3539ZM2.04304 11.077L2.23998 11.7662H2.97848L2.38767 12.1847L2.60923 12.8493L2.01848 12.4308L1.47692 12.8493L1.69848 12.1847L1.10767 11.7662H1.84623L2.04304 11.077ZM6.08004 11.077L6.3016 11.7662H7.01542L6.44929 12.1847L6.67079 12.8493L6.08004 12.4308L5.51385 12.8493L5.73542 12.1847L5.14467 11.7662H5.85848L6.08004 11.077ZM10.1416 11.077L10.3632 11.7662H11.077L10.4862 12.1847L10.7324 12.8493L10.1416 12.4308L9.55085 12.8493L9.79698 12.1847L9.20623 11.7662H9.9201L10.1416 11.077ZM14.1786 11.077L14.4247 11.7662H15.114L14.5478 12.1847L14.7694 12.8493L14.1786 12.4308L13.6124 12.8493L13.834 12.1847L13.2432 11.7662H13.9817L14.1786 11.077ZM18.2402 11.077L18.4617 11.7662H19.1755L18.6094 12.1847L18.8309 12.8493L18.2402 12.4308L17.674 12.8493L17.8955 12.1847L17.3048 11.7662H18.0186L18.2402 11.077ZM22.3017 11.077L22.5233 11.7662H23.2371L22.6464 12.1847L22.8925 12.8493L22.3017 12.4308L21.711 12.8493L21.9571 12.1847L21.3664 11.7662H22.0802L22.3017 11.077ZM4.06154 12.8002L4.2831 13.4894H4.99698L4.40617 13.9078L4.65235 14.5725L4.06154 14.154L3.47079 14.5725L3.71692 13.9078L3.12617 13.4894H3.84004L4.06154 12.8002ZM8.09854 12.8002L8.34467 13.4894H9.03392L8.46773 13.9078L8.68929 14.5725L8.09854 14.154L7.53235 14.5725L7.75392 13.9078L7.1631 13.4894H7.9016L8.09854 12.8002ZM12.1601 12.8002L12.3817 13.4894H13.0955L12.5294 13.9078L12.7509 14.5725L12.1601 14.154L11.5939 14.5725L11.8155 13.9078L11.2247 13.4894H11.9385L12.1601 12.8002ZM16.2217 12.8002L16.4432 13.4894H17.157L16.5663 13.9078L16.8125 14.5725L16.2217 14.1541L15.6309 14.5725L15.877 13.9079L15.2863 13.4895H16.0002L16.2217 12.8002ZM20.2587 12.8002L20.5048 13.4894H21.1694L20.6032 13.9078L20.8248 14.5725L20.234 14.154L19.6679 14.5725L19.8894 13.9078L19.2986 13.4894H20.0371L20.2587 12.8002ZM2.04304 14.5233L2.23998 15.2125H2.97848L2.38767 15.631L2.60923 16.2956L2.01848 15.8771L1.47692 16.2956L1.69848 15.631L1.10767 15.2125H1.84623L2.04304 14.5233ZM6.08004 14.5233L6.3016 15.2125H7.01542L6.44929 15.631L6.67079 16.2956L6.08004 15.8771L5.51385 16.2956L5.73542 15.631L5.14467 15.2125H5.85848L6.08004 14.5233ZM10.1416 14.5233L10.3632 15.2125H11.077L10.4862 15.631L10.7324 16.2956L10.1416 15.8771L9.55085 16.2956L9.79698 15.631L9.20623 15.2125H9.9201L10.1416 14.5233ZM14.1786 14.5233L14.4247 15.2125H15.114L14.5478 15.631L14.7694 16.2956L14.1786 15.8771L13.6124 16.2956L13.834 15.631L13.2432 15.2125H13.9817L14.1786 14.5233ZM18.2402 14.5233L18.4617 15.2125H19.1755L18.6094 15.631L18.8309 16.2956L18.2402 15.8771L17.674 16.2956L17.8955 15.631L17.3048 15.2125H18.0186L18.2402 14.5233ZM22.3017 14.5233L22.5233 15.2125H23.2371L22.6464 15.631L22.8925 16.2956L22.3017 15.8771L21.711 16.2956L21.9571 15.631L21.3664 15.2125H22.0802L22.3017 14.5233Z" fill="white"/>
</g>
<defs>
<clipPath id="clip0_9_1225">
<rect width="32" height="32" rx="16" fill="white"/>
</clipPath>
</defs>
</svg>
