<svg width="169" height="168" viewBox="0 0 169 168" fill="none" xmlns="http://www.w3.org/2000/svg">
<defs>
<linearGradient id="paint0_linear_11_8401" x1="41.8437" y1="84" x2="84.5" y2="133.219" gradientUnits="userSpaceOnUse">
<stop stop-color="#BF953F"/>
<stop offset="0.276042" stop-color="#FCF6BA"/>
<stop offset="0.53125" stop-color="#B38728"/>
<stop offset="0.755208" stop-color="#FBF5B7"/>
<stop offset="1" stop-color="#AA771C"/>
</linearGradient>
</defs>
<rect x="0.5" width="168" height="168" rx="32" fill="#2B3040"/>
<path fill-rule="evenodd" clip-rule="evenodd" d="M80.3984 45.483L67.7532 52.7783V44.4428L84.5 34.7812L101.247 44.4428V52.7783L88.6016 45.483V122.517L93.5234 119.677V65.2969H101.727V114.945L106.648 112.105V74.6484H114.852V107.373L119.932 104.442V63.5584L107.157 56.1883V47.8528L127.156 59.3906V108.609L84.5 133.219L41.8438 108.609V59.3906L61.8426 47.8528V56.1883L49.0678 63.5584V104.442L54.1484 107.373V74.6484H62.3516V112.105L67.2734 114.945V65.2969H75.4766V119.677L80.3984 122.517V45.483Z" fill="white"/>
<path fill-rule="evenodd" clip-rule="evenodd" d="M80.3984 45.483L67.7532 52.7783V44.4428L84.5 34.7812L101.247 44.4428V52.7783L88.6016 45.483V122.517L93.5234 119.677V65.2969H101.727V114.945L106.648 112.105V74.6484H114.852V107.373L119.932 104.442V63.5584L107.157 56.1883V47.8528L127.156 59.3906V108.609L84.5 133.219L41.8438 108.609V59.3906L61.8426 47.8528V56.1883L49.0678 63.5584V104.442L54.1484 107.373V74.6484H62.3516V112.105L67.2734 114.945V65.2969H75.4766V119.677L80.3984 122.517V45.483Z" fill="url(#paint0_linear_11_8401)"/>
<path fill-rule="evenodd" clip-rule="evenodd" d="M80.3984 45.483L67.7532 52.7783V44.4428L84.5 34.7812L101.247 44.4428V52.7783L88.6016 45.483V122.517L93.5234 119.677V65.2969H101.727V114.945L106.648 112.105V74.6484H114.852V107.373L119.932 104.442V63.5584L107.157 56.1883V47.8528L127.156 59.3906V108.609L84.5 133.219L41.8438 108.609V59.3906L61.8426 47.8528V56.1883L49.0678 63.5584V104.442L54.1484 107.373V74.6484H62.3516V112.105L67.2734 114.945V65.2969H75.4766V119.677L80.3984 122.517V45.483Z" fill="white"/>
</svg>
