<svg width="25" height="24" viewBox="0 0 25 24" fill="none" xmlns="http://www.w3.org/2000/svg">
<path d="M12.125 1L21.625 6.5V17.5L12.125 23L2.625 17.5V6.5L12.125 1ZM12.125 3.311L4.625 7.653V16.347L12.125 20.689L19.625 16.347V7.653L12.125 3.311ZM12.125 16C11.0641 16 10.0467 15.5786 9.29657 14.8284C8.54643 14.0783 8.125 13.0609 8.125 12C8.125 10.9391 8.54643 9.92172 9.29657 9.17157C10.0467 8.42143 11.0641 8 12.125 8C13.1859 8 14.2033 8.42143 14.9534 9.17157C15.7036 9.92172 16.125 10.9391 16.125 12C16.125 13.0609 15.7036 14.0783 14.9534 14.8284C14.2033 15.5786 13.1859 16 12.125 16ZM12.125 14C12.6554 14 13.1641 13.7893 13.5392 13.4142C13.9143 13.0391 14.125 12.5304 14.125 12C14.125 11.4696 13.9143 10.9609 13.5392 10.5858C13.1641 10.2107 12.6554 10 12.125 10C11.5946 10 11.0859 10.2107 10.7108 10.5858C10.3357 10.9609 10.125 11.4696 10.125 12C10.125 12.5304 10.3357 13.0391 10.7108 13.4142C11.0859 13.7893 11.5946 14 12.125 14Z" fill="#FEFEFE"/>
</svg>
